<svg width="106" height="43" viewBox="0 0 106 43" fill="none" xmlns="http://www.w3.org/2000/svg">
<mask id="path-1-inside-1_264_2" fill="white">
<path d="M32.835 16.7393L51.5859 15.2344L74.2178 14.6787L90.3779 23.6826L105.072 40.4551L86.2344 36.2559L76.0449 28.8613L56.2842 25.292L36.499 29.3193L40.3926 42.6846L0 33.4668L29.124 4L32.835 16.7393Z"/>
</mask>
<path d="M32.835 16.7393L51.5859 15.2344L74.2178 14.6787L90.3779 23.6826L105.072 40.4551L86.2344 36.2559L76.0449 28.8613L56.2842 25.292L36.499 29.3193L40.3926 42.6846L0 33.4668L29.124 4L32.835 16.7393Z" fill="#F0F8FA"/>
<path d="M32.835 16.7393L29.9547 17.5783L30.6383 19.9252L33.075 19.7296L32.835 16.7393ZM51.5859 15.2344L51.5123 12.2353L51.429 12.2373L51.3459 12.244L51.5859 15.2344ZM74.2178 14.6787L75.6779 12.058L74.9627 11.6595L74.1441 11.6796L74.2178 14.6787ZM90.3779 23.6826L92.6344 21.7057L92.292 21.3149L91.8381 21.0619L90.3779 23.6826ZM105.072 40.4551L104.42 43.3832L113.375 45.3795L107.329 38.4782L105.072 40.4551ZM86.2344 36.2559L84.4724 38.6839L84.9752 39.0488L85.5817 39.184L86.2344 36.2559ZM76.0449 28.8613L77.8069 26.4333L77.2524 26.0309L76.5782 25.9091L76.0449 28.8613ZM56.2842 25.292L56.8174 22.3398L56.2504 22.2373L55.6858 22.3523L56.2842 25.292ZM36.499 29.3193L35.9006 26.3796L32.7073 27.0296L33.6188 30.1584L36.499 29.3193ZM40.3926 42.6846L39.7251 45.6094L44.7001 46.7447L43.2728 41.8455L40.3926 42.6846ZM0 33.4668L-2.13369 31.3579L-5.92335 35.1922L-0.667455 36.3916L0 33.4668ZM29.124 4L32.0043 3.16098L30.5772 -1.738L26.9903 1.89113L29.124 4ZM32.835 16.7393L33.075 19.7296L51.8259 18.2248L51.5859 15.2344L51.3459 12.244L32.595 13.7489L32.835 16.7393ZM51.5859 15.2344L51.6596 18.2335L74.2914 17.6778L74.2178 14.6787L74.1441 11.6796L51.5123 12.2353L51.5859 15.2344ZM74.2178 14.6787L72.7576 17.2994L88.9178 26.3033L90.3779 23.6826L91.8381 21.0619L75.6779 12.058L74.2178 14.6787ZM90.3779 23.6826L88.1214 25.6595L102.816 42.432L105.072 40.4551L107.329 38.4782L92.6344 21.7057L90.3779 23.6826ZM105.072 40.4551L105.725 37.5269L86.8871 33.3277L86.2344 36.2559L85.5817 39.184L104.42 43.3832L105.072 40.4551ZM86.2344 36.2559L87.9964 33.8278L77.8069 26.4333L76.0449 28.8613L74.2829 31.2893L84.4724 38.6839L86.2344 36.2559ZM76.0449 28.8613L76.5782 25.9091L56.8174 22.3398L56.2842 25.292L55.7509 28.2442L75.5117 31.8136L76.0449 28.8613ZM56.2842 25.292L55.6858 22.3523L35.9006 26.3796L36.499 29.3193L37.0974 32.2591L56.8826 28.2317L56.2842 25.292ZM36.499 29.3193L33.6188 30.1584L37.5123 43.5236L40.3926 42.6846L43.2728 41.8455L39.3793 28.4803L36.499 29.3193ZM40.3926 42.6846L41.06 39.7598L0.667455 30.542L0 33.4668L-0.667455 36.3916L39.7251 45.6094L40.3926 42.6846ZM0 33.4668L2.13369 35.5757L31.2577 6.10887L29.124 4L26.9903 1.89113L-2.13369 31.3579L0 33.4668ZM29.124 4L26.2437 4.83902L29.9547 17.5783L32.835 16.7393L35.7152 15.9002L32.0043 3.16098L29.124 4Z" fill="#0CAFF7" mask="url(#path-1-inside-1_264_2)"/>
<path d="M32.835 12.7393L51.5859 11.2344L74.2178 10.6787L90.3779 19.6826L105.072 36.4551L86.2344 32.2559L76.0449 24.8613L56.2842 21.292L36.499 25.3193L40.3926 38.6846L0 29.4668L29.124 0L32.835 12.7393Z" fill="#04233B"/>
</svg>
