<svg width="1664" height="1664" viewBox="0 0 1664 1664" fill="none" xmlns="http://www.w3.org/2000/svg">
<g clip-path="url(#clip0_222_4)">
<rect width="1663.38" height="1663.38" fill="#BFEAFD" fill-opacity="0.45"/>
<path d="M0 -6.10352e-05L0 83.169H83.169V-6.10352e-05L0 -6.10352e-05ZM83.169 83.169L83.169 166.338H166.338V83.169L83.169 83.169ZM166.338 83.169H249.507V-6.10352e-05L166.338 -6.10352e-05V83.169ZM249.507 83.169V166.338L332.676 166.338V83.169H249.507ZM332.676 83.169L415.845 83.169V-6.10352e-05L332.676 -6.10352e-05V83.169ZM415.845 83.169V166.338H499.014V83.169H415.845ZM499.014 83.169H582.183V-6.10352e-05L499.014 -6.10352e-05V83.169ZM582.183 83.169V166.338H665.352V83.169L582.183 83.169ZM665.352 83.169H748.521V-6.10352e-05L665.352 -6.10352e-05V83.169ZM748.521 83.169V166.338L831.69 166.338V83.169H748.521ZM831.69 83.169L914.859 83.169V-6.10352e-05L831.69 -6.10352e-05V83.169ZM914.859 83.169V166.338H998.028V83.169H914.859ZM998.028 83.169H1081.2V-6.10352e-05L998.028 -6.10352e-05V83.169ZM1081.2 83.169V166.338H1164.37V83.169L1081.2 83.169ZM1164.37 83.169H1247.54V-6.10352e-05L1164.37 -6.10352e-05V83.169ZM1247.54 83.169V166.338L1330.7 166.338V83.169H1247.54ZM1330.7 83.169L1413.87 83.169V-6.10352e-05L1330.7 -6.10352e-05V83.169ZM1413.87 83.169V166.338H1497.04V83.169H1413.87ZM1497.04 83.169H1580.21V-6.10352e-05L1497.04 -6.10352e-05V83.169ZM1580.21 83.169V166.338H1663.38V83.169H1580.21ZM1580.21 166.338H1497.04V249.507H1580.21V166.338ZM1580.21 249.507V332.676H1663.38V249.507H1580.21ZM1580.21 332.676L1497.04 332.676V415.845L1580.21 415.845V332.676ZM1580.21 415.845V499.014H1663.38V415.845H1580.21ZM1580.21 499.014L1497.04 499.014V582.183H1580.21V499.014ZM1580.21 582.183V665.352H1663.38V582.183H1580.21ZM1580.21 665.352H1497.04V748.521H1580.21V665.352ZM1580.21 748.521V831.69H1663.38V748.521H1580.21ZM1580.21 831.69H1497.04V914.859H1580.21V831.69ZM1580.21 914.859V998.028H1663.38V914.859H1580.21ZM1580.21 998.028H1497.04V1081.2H1580.21V998.028ZM1580.21 1081.2V1164.37H1663.38V1081.2H1580.21ZM1580.21 1164.37H1497.04V1247.54H1580.21V1164.37ZM1580.21 1247.54V1330.7H1663.38V1247.54H1580.21ZM1580.21 1330.7H1497.04V1413.87H1580.21V1330.7ZM1580.21 1413.87V1497.04H1663.38V1413.87H1580.21ZM1580.21 1497.04H1497.04V1580.21H1580.21V1497.04ZM1580.21 1580.21V1663.38H1663.38V1580.21H1580.21ZM1497.04 1580.21H1413.87V1663.38H1497.04V1580.21ZM1413.87 1580.21V1497.04H1330.7V1580.21H1413.87ZM1330.7 1580.21H1247.54V1663.38H1330.7V1580.21ZM1247.54 1580.21V1497.04H1164.37V1580.21H1247.54ZM1164.37 1580.21H1081.2V1663.38H1164.37V1580.21ZM1081.2 1580.21V1497.04H998.028V1580.21H1081.2ZM998.028 1580.21H914.859V1663.38H998.028V1580.21ZM914.859 1580.21V1497.04H831.69V1580.21H914.859ZM831.69 1580.21H748.521V1663.38H831.69V1580.21ZM748.521 1580.21V1497.04H665.352V1580.21H748.521ZM665.352 1580.21H582.183V1663.38H665.352V1580.21ZM582.183 1580.21V1497.04H499.014L499.014 1580.21H582.183ZM499.014 1580.21H415.845V1663.38H499.014V1580.21ZM415.845 1580.21L415.845 1497.04H332.676L332.676 1580.21H415.845ZM332.676 1580.21H249.507V1663.38H332.676V1580.21ZM249.507 1580.21V1497.04H166.338V1580.21H249.507ZM166.338 1580.21H83.169V1663.38H166.338V1580.21ZM83.169 1580.21V1497.04H0L0 1580.21H83.169ZM83.169 1497.04H166.338V1413.87H83.169V1497.04ZM83.169 1413.87L83.169 1330.7H0L0 1413.87H83.169ZM83.169 1330.7H166.338L166.338 1247.54H83.169V1330.7ZM83.169 1247.54V1164.37H0L0 1247.54H83.169ZM83.169 1164.37H166.338V1081.2H83.169L83.169 1164.37ZM83.169 1081.2V998.028H0L0 1081.2H83.169ZM83.169 998.028H166.338V914.859H83.169V998.028ZM83.169 914.859L83.169 831.69H0L0 914.859H83.169ZM83.169 831.69H166.338L166.338 748.521H83.169V831.69ZM83.169 748.521V665.352H0L0 748.521H83.169ZM83.169 665.352H166.338V582.183H83.169L83.169 665.352ZM83.169 582.183V499.014H0L0 582.183H83.169ZM83.169 499.014H166.338V415.845H83.169V499.014ZM83.169 415.845L83.169 332.676H0L0 415.845H83.169ZM83.169 332.676H166.338L166.338 249.507H83.169V332.676ZM83.169 249.507V166.338H0L0 249.507H83.169ZM166.338 249.507H249.507V166.338H166.338V249.507ZM249.507 249.507L249.507 332.676H332.676V249.507L249.507 249.507ZM332.676 249.507H415.845V166.338H332.676V249.507ZM415.845 249.507V332.676H499.014V249.507H415.845ZM499.014 249.507H582.183V166.338H499.014V249.507ZM582.183 249.507V332.676H665.352V249.507H582.183ZM665.352 249.507H748.521V166.338H665.352V249.507ZM748.521 249.507V332.676H831.69V249.507L748.521 249.507ZM831.69 249.507H914.859V166.338H831.69V249.507ZM914.859 249.507V332.676H998.028V249.507H914.859ZM998.028 249.507H1081.2V166.338H998.028V249.507ZM1081.2 249.507V332.676H1164.37V249.507H1081.2ZM1164.37 249.507H1247.54V166.338H1164.37V249.507ZM1247.54 249.507V332.676H1330.7V249.507L1247.54 249.507ZM1330.7 249.507H1413.87V166.338H1330.7V249.507ZM1413.87 249.507V332.676H1497.04V249.507H1413.87ZM1413.87 332.676H1330.7V415.845H1413.87V332.676ZM1413.87 415.845V499.014H1497.04V415.845H1413.87ZM1413.87 499.014H1330.7V582.183H1413.87V499.014ZM1413.87 582.183V665.352H1497.04V582.183H1413.87ZM1413.87 665.352H1330.7V748.521H1413.87V665.352ZM1413.87 748.521V831.69H1497.04V748.521H1413.87ZM1413.87 831.69H1330.7V914.859H1413.87V831.69ZM1413.87 914.859V998.028H1497.04V914.859H1413.87ZM1413.87 998.028H1330.7V1081.2H1413.87V998.028ZM1413.87 1081.2V1164.37H1497.04V1081.2H1413.87ZM1413.87 1164.37H1330.7V1247.54H1413.87V1164.37ZM1413.87 1247.54V1330.7H1497.04V1247.54H1413.87ZM1413.87 1330.7H1330.7V1413.87H1413.87V1330.7ZM1413.87 1413.87V1497.04H1497.04V1413.87H1413.87ZM1330.7 1413.87H1247.54V1497.04H1330.7V1413.87ZM1247.54 1413.87V1330.7H1164.37V1413.87H1247.54ZM1164.37 1413.87H1081.2V1497.04H1164.37V1413.87ZM1081.2 1413.87V1330.7H998.028V1413.87H1081.2ZM998.028 1413.87H914.859V1497.04H998.028V1413.87ZM914.859 1413.87V1330.7H831.69V1413.87H914.859ZM831.69 1413.87H748.521V1497.04H831.69V1413.87ZM748.521 1413.87V1330.7H665.352V1413.87H748.521ZM665.352 1413.87H582.183V1497.04H665.352V1413.87ZM582.183 1413.87V1330.7H499.014V1413.87H582.183ZM499.014 1413.87H415.845V1497.04H499.014V1413.87ZM415.845 1413.87V1330.7H332.676V1413.87H415.845ZM332.676 1413.87H249.507V1497.04H332.676V1413.87ZM249.507 1413.87V1330.7H166.338V1413.87H249.507ZM249.507 1330.7H332.676V1247.54H249.507L249.507 1330.7ZM249.507 1247.54V1164.37H166.338V1247.54H249.507ZM249.507 1164.37H332.676V1081.2H249.507V1164.37ZM249.507 1081.2V998.028H166.338V1081.2H249.507ZM249.507 998.028H332.676V914.859H249.507V998.028ZM249.507 914.859V831.69H166.338V914.859H249.507ZM249.507 831.69H332.676V748.521H249.507L249.507 831.69ZM249.507 748.521V665.352H166.338V748.521H249.507ZM249.507 665.352H332.676V582.183H249.507V665.352ZM249.507 582.183V499.014H166.338V582.183H249.507ZM249.507 499.014H332.676V415.845H249.507V499.014ZM249.507 415.845V332.676H166.338V415.845H249.507ZM332.676 415.845H415.845V332.676H332.676V415.845ZM415.845 415.845V499.014H499.014V415.845H415.845ZM499.014 415.845L582.183 415.845V332.676L499.014 332.676V415.845ZM582.183 415.845V499.014H665.352V415.845H582.183ZM665.352 415.845H748.521V332.676H665.352V415.845ZM748.521 415.845V499.014H831.69V415.845H748.521ZM831.69 415.845H914.859V332.676H831.69V415.845ZM914.859 415.845V499.014H998.028V415.845H914.859ZM998.028 415.845H1081.2V332.676H998.028V415.845ZM1081.2 415.845V499.014H1164.37V415.845H1081.2ZM1164.37 415.845H1247.54V332.676H1164.37V415.845ZM1247.54 415.845V499.014H1330.7V415.845H1247.54ZM1247.54 499.014H1164.37V582.183H1247.54V499.014ZM1247.54 582.183V665.352H1330.7V582.183H1247.54ZM1247.54 665.352H1164.37V748.521H1247.54V665.352ZM1247.54 748.521V831.69H1330.7V748.521H1247.54ZM1247.54 831.69H1164.37V914.859H1247.54V831.69ZM1247.54 914.859V998.028H1330.7V914.859H1247.54ZM1247.54 998.028H1164.37V1081.2H1247.54V998.028ZM1247.54 1081.2V1164.37H1330.7V1081.2H1247.54ZM1247.54 1164.37H1164.37V1247.54H1247.54V1164.37ZM1247.54 1247.54V1330.7H1330.7V1247.54H1247.54ZM1164.37 1247.54H1081.2V1330.7H1164.37V1247.54ZM1081.2 1247.54V1164.37H998.028V1247.54H1081.2ZM998.028 1247.54H914.859V1330.7H998.028V1247.54ZM914.859 1247.54V1164.37H831.69V1247.54H914.859ZM831.69 1247.54H748.521V1330.7H831.69V1247.54ZM748.521 1247.54V1164.37H665.352V1247.54H748.521ZM665.352 1247.54H582.183V1330.7H665.352V1247.54ZM582.183 1247.54V1164.37H499.014V1247.54H582.183ZM499.014 1247.54H415.845V1330.7H499.014V1247.54ZM415.845 1247.54V1164.37H332.676V1247.54H415.845ZM415.845 1164.37H499.014V1081.2H415.845V1164.37ZM415.845 1081.2V998.028H332.676V1081.2H415.845ZM415.845 998.028H499.014V914.859H415.845V998.028ZM415.845 914.859V831.69H332.676V914.859H415.845ZM415.845 831.69H499.014V748.521H415.845V831.69ZM415.845 748.521V665.352H332.676V748.521H415.845ZM415.845 665.352H499.014V582.183H415.845V665.352ZM415.845 582.183L415.845 499.014H332.676L332.676 582.183H415.845ZM499.014 582.183H582.183V499.014L499.014 499.014L499.014 582.183ZM582.183 582.183V665.352H665.352V582.183H582.183ZM665.352 582.183H748.521V499.014H665.352V582.183ZM748.521 582.183V665.352H831.69V582.183H748.521ZM831.69 582.183H914.859V499.014H831.69V582.183ZM914.859 582.183V665.352H998.028V582.183H914.859ZM998.028 582.183L1081.2 582.183V499.014H998.028V582.183ZM1081.2 582.183V665.352H1164.37V582.183H1081.2ZM1081.2 665.352L998.028 665.352V748.521L1081.2 748.521V665.352ZM1081.2 748.521V831.69H1164.37V748.521H1081.2ZM1081.2 831.69L998.028 831.69V914.859L1081.2 914.859V831.69ZM1081.2 914.859V998.028H1164.37V914.859H1081.2ZM1081.2 998.028L998.028 998.028L998.028 1081.2H1081.2V998.028ZM1081.2 1081.2V1164.37H1164.37V1081.2H1081.2ZM998.028 1081.2H914.859V1164.37H998.028V1081.2ZM914.859 1081.2L914.859 998.028H831.69L831.69 1081.2H914.859ZM831.69 1081.2H748.521V1164.37H831.69V1081.2ZM748.521 1081.2L748.521 998.028H665.352L665.352 1081.2H748.521ZM665.352 1081.2H582.183V1164.37H665.352V1081.2ZM582.183 1081.2L582.183 998.028H499.014V1081.2H582.183ZM582.183 998.028H665.352V914.859H582.183V998.028ZM582.183 914.859V831.69H499.014V914.859H582.183ZM582.183 831.69H665.352V748.521H582.183V831.69ZM582.183 748.521V665.352H499.014V748.521H582.183ZM665.352 748.521H748.521V665.352H665.352V748.521ZM748.521 748.521V831.69H831.69V748.521H748.521ZM831.69 748.521H914.859V665.352H831.69V748.521ZM914.859 748.521V831.69H998.028V748.521H914.859ZM914.859 831.69H831.69V914.859H914.859V831.69ZM914.859 914.859V998.028H998.028V914.859H914.859ZM831.69 914.859H748.521V998.028H831.69V914.859ZM748.521 914.859V831.69H665.352V914.859H748.521Z" fill="white" fill-opacity="0.45"/>
</g>
<defs>
<clipPath id="clip0_222_4">
<rect width="1663.38" height="1663.38" fill="white"/>
</clipPath>
</defs>
</svg>
