<svg width="40" height="40" viewBox="0 0 40 40" fill="none" xmlns="http://www.w3.org/2000/svg">
<path d="M20.7425 14.743C19.7166 14.6417 18.6845 14.8599 17.7875 15.3678C16.8904 15.8758 16.1723 16.6485 15.7314 17.5804C15.2906 18.5122 15.1485 19.5575 15.3247 20.5732C15.5008 21.5889 15.9866 22.5254 16.7156 23.2543C17.4445 23.9832 18.3809 24.469 19.3966 24.6452C20.4123 24.8214 21.4576 24.6793 22.3895 24.2384C23.3213 23.7975 24.0941 23.0794 24.602 22.1824C25.11 21.2853 25.3282 20.2532 25.2269 19.2273C25.1114 18.0773 24.6018 17.0026 23.7845 16.1853C22.9673 15.368 21.8925 14.8585 20.7425 14.743ZM32.7816 19.7188C32.7785 20.2622 32.7385 20.8049 32.662 21.343L36.1941 24.1133C36.3479 24.2408 36.4515 24.4187 36.4866 24.6153C36.5216 24.812 36.4858 25.0147 36.3855 25.1875L33.0441 30.9688C32.9426 31.1399 32.784 31.2696 32.5962 31.3352C32.4084 31.4008 32.2035 31.398 32.0175 31.3273L28.5097 29.9148C28.3163 29.8378 28.1067 29.81 27.8999 29.8339C27.6931 29.8577 27.4954 29.9325 27.3245 30.0516C26.7892 30.4202 26.2266 30.7477 25.6417 31.0312C25.4578 31.1206 25.2988 31.2539 25.1786 31.4193C25.0584 31.5847 24.9808 31.7772 24.9527 31.9797L24.4269 35.7211C24.3924 35.9187 24.2903 36.0982 24.1381 36.2288C23.9859 36.3595 23.7931 36.4333 23.5925 36.4375H16.9097C16.7125 36.4341 16.5223 36.3636 16.3705 36.2376C16.2187 36.1117 16.1143 35.9377 16.0745 35.7445L15.5495 32.0086C15.5201 31.8039 15.4405 31.6096 15.3178 31.443C15.1951 31.2765 15.0332 31.1428 14.8464 31.0539C14.2622 30.772 13.7015 30.4436 13.1699 30.0719C12.9996 29.9534 12.8026 29.8792 12.5965 29.8559C12.3904 29.8326 12.1818 29.8609 11.9894 29.9383L8.48236 31.35C8.29651 31.4208 8.09164 31.4237 7.90385 31.3582C7.71606 31.2928 7.55739 31.1632 7.4558 30.9922L4.11439 25.2109C4.01393 25.0382 3.97803 24.8354 4.01309 24.6387C4.04814 24.442 4.15186 24.2641 4.3058 24.1367L7.29095 21.793C7.4545 21.6631 7.58303 21.4945 7.66489 21.3024C7.74675 21.1103 7.77934 20.9009 7.7597 20.693C7.73158 20.3672 7.71439 20.0422 7.71439 19.7164C7.71439 19.3906 7.7308 19.0703 7.7597 18.7516C7.77719 18.5449 7.743 18.3372 7.66022 18.1471C7.57744 17.957 7.44866 17.7905 7.28549 17.6625L4.30189 15.3187C4.15046 15.1907 4.04891 15.0134 4.01506 14.818C3.98121 14.6226 4.0172 14.4215 4.11674 14.25L7.45814 8.46875C7.55962 8.29765 7.71823 8.16786 7.90603 8.10226C8.09383 8.03665 8.29876 8.03945 8.4847 8.11016L11.9925 9.52266C12.186 9.59968 12.3955 9.6275 12.6023 9.60364C12.8092 9.57978 13.0068 9.50498 13.1777 9.38594C13.713 9.01729 14.2756 8.68979 14.8605 8.40625C15.0444 8.31687 15.2034 8.1836 15.3236 8.01819C15.4438 7.85278 15.5214 7.66032 15.5495 7.45781L16.0753 3.71641C16.1099 3.51881 16.2119 3.33935 16.3641 3.20868C16.5163 3.07801 16.7092 3.00425 16.9097 3H23.5925C23.7897 3.00341 23.9799 3.07391 24.1317 3.19987C24.2836 3.32583 24.3879 3.49975 24.4277 3.69297L24.9527 7.42891C24.9822 7.63365 25.0618 7.82793 25.1844 7.99448C25.3071 8.16104 25.469 8.2947 25.6558 8.38359C26.2401 8.6655 26.8007 8.9939 27.3324 9.36563C27.5026 9.48407 27.6996 9.5583 27.9057 9.58162C28.1118 9.60495 28.3204 9.57663 28.5128 9.49922L32.0199 8.0875C32.2057 8.01673 32.4106 8.01381 32.5984 8.07927C32.7862 8.14472 32.9448 8.27435 33.0464 8.44531L36.3878 14.2266C36.4883 14.3993 36.5242 14.6021 36.4891 14.7988C36.4541 14.9955 36.3504 15.1734 36.1964 15.3008L33.2113 17.6445C33.047 17.7739 32.9177 17.9424 32.8352 18.1345C32.7526 18.3266 32.7194 18.5363 32.7386 18.7445C32.7644 19.068 32.7816 19.393 32.7816 19.7188Z" stroke="#0CAFF7" stroke-width="2" stroke-linecap="round" stroke-linejoin="round"/>
</svg>
